<svg width="24" height="24" viewBox="0 0 24 24" fill="none" xmlns="http://www.w3.org/2000/svg">
<g clip-path="url(#clip0_2267_1591)">
<path d="M22.4625 13.3561L21.285 9.82506L18.957 2.82006C18.9294 2.74074 18.8777 2.67205 18.8091 2.62363C18.7405 2.5752 18.6585 2.54948 18.5745 2.55006C18.4908 2.54979 18.4091 2.57566 18.3408 2.62407C18.2725 2.67247 18.221 2.74099 18.1935 2.82006L15.8655 9.82056H8.133L5.805 2.81856C5.77745 2.73964 5.72591 2.67132 5.65758 2.62317C5.58926 2.57503 5.50758 2.54946 5.424 2.55006C5.34023 2.54957 5.25842 2.57535 5.19008 2.62378C5.12173 2.67222 5.07029 2.74086 5.043 2.82006L2.718 9.82056L1.542 13.3561C1.48995 13.5136 1.49 13.6837 1.54214 13.8412C1.59428 13.9987 1.69574 14.1352 1.8315 14.2306L12.0015 21.4486L22.1685 14.2306C22.3049 14.1357 22.4071 13.9994 22.46 13.8419C22.513 13.6844 22.5138 13.5141 22.4625 13.3561Z" fill="#FC6D26"/>
<path d="M12 21.4441L15.867 9.81909H8.1345L12 21.4441Z" fill="#E24329"/>
<path d="M12 21.4441L8.1315 9.81909H2.7195L12 21.4441Z" fill="#FC6D26"/>
<path d="M2.715 9.82349L1.539 13.3545C1.48695 13.512 1.487 13.6821 1.53914 13.8396C1.59128 13.9971 1.69274 14.1336 1.8285 14.229L12 21.45L2.715 9.82499V9.82349Z" fill="#FCA326"/>
<path d="M2.718 9.82349H8.136L5.805 2.82299C5.77751 2.74392 5.72602 2.6754 5.65772 2.62699C5.58942 2.57859 5.50771 2.55272 5.424 2.55299C5.34003 2.55241 5.25799 2.57813 5.18939 2.62656C5.12078 2.67498 5.06907 2.74367 5.0415 2.82299L2.718 9.82349Z" fill="#E24329"/>
<path d="M12 21.4441L15.867 9.81909H21.288L12 21.4441Z" fill="#FC6D26"/>
<path d="M21.285 9.82349L22.4595 13.3545C22.5118 13.512 22.5119 13.6822 22.4597 13.8397C22.4076 13.9973 22.3059 14.1338 22.17 14.229L12 21.444L21.282 9.82349H21.285Z" fill="#FCA326"/>
<path d="M21.285 9.8235H15.87L18.1965 2.823C18.2239 2.74356 18.2755 2.67474 18.3442 2.62628C18.4128 2.57783 18.495 2.55219 18.579 2.553C18.7515 2.553 18.9045 2.6625 18.96 2.823L21.288 9.8235H21.285Z" fill="#E24329"/>
</g>
<defs>
<clipPath id="clip0_2267_1591">
<rect width="24" height="24" fill="white"/>
</clipPath>
</defs>
</svg>
